<?xml version="1.0" encoding="UTF-8" standalone="no"?>
<svg
   xmlns:dc="http://purl.org/dc/elements/1.1/"
   xmlns:cc="http://creativecommons.org/ns#"
   xmlns:rdf="http://www.w3.org/1999/02/22-rdf-syntax-ns#"
   xmlns:svg="http://www.w3.org/2000/svg"
   xmlns="http://www.w3.org/2000/svg"
   xmlns:sodipodi="http://sodipodi.sourceforge.net/DTD/sodipodi-0.dtd"
   xmlns:inkscape="http://www.inkscape.org/namespaces/inkscape"
   height="1500pt"
   viewBox="0 1 1500 1502.9325"
   width="1500pt"
   version="1.1"
   id="svg4"
   sodipodi:docname="home.svg"
   inkscape:version="1.0.2-2 (e86c870879, 2021-01-15)">
  <metadata
     id="metadata10">
    <rdf:RDF>
      <cc:Work
         rdf:about="">
        <dc:format>image/svg+xml</dc:format>
        <dc:type
           rdf:resource="http://purl.org/dc/dcmitype/StillImage" />
        <dc:title></dc:title>
      </cc:Work>
    </rdf:RDF>
  </metadata>
  <defs
     id="defs8" />
  <sodipodi:namedview
     pagecolor="#ffffff"
     bordercolor="#666666"
     borderopacity="1"
     objecttolerance="10"
     gridtolerance="10"
     guidetolerance="10"
     inkscape:pageopacity="0"
     inkscape:pageshadow="2"
     inkscape:window-width="1920"
     inkscape:window-height="1001"
     id="namedview6"
     showgrid="false"
     inkscape:zoom="0.3045499"
     inkscape:cx="887.20437"
     inkscape:cy="935.53577"
     inkscape:window-x="-9"
     inkscape:window-y="-9"
     inkscape:window-maximized="1"
     inkscape:current-layer="svg4" />
  <path
     d="m 1459.1794,654.1331 c -0.046,-0.0344 -0.08,-0.0802 -0.1144,-0.11485 L 847.55675,40.560613 C 821.49154,14.399879 786.8371,0 749.97526,0 713.11344,0 678.45897,14.399879 652.38235,40.560613 L 41.194277,653.70856 c -0.205861,0.2065 -0.423176,0.42454 -0.617606,0.63106 -53.525705,54.00815 -53.434209,141.63514 0.263043,195.50561 24.532614,24.62321 56.922529,38.87392 91.565556,40.37702 1.4182,0.13776 2.8364,0.2065 4.26604,0.2065 h 24.36106 V 1341.885 c 0,89.3481 72.46557,162.0359 161.5264,162.0359 h 239.24161 c 24.25814,0 43.91853,-19.7353 43.91853,-44.0602 v -353.9501 c 0,-40.7671 33.06471,-73.927 73.70079,-73.927 h 141.11114 c 40.63609,0 73.68935,33.1599 73.68935,73.927 v 353.9502 c 0,24.3249 19.66039,44.0602 43.91853,44.0602 h 239.24158 c 89.0723,0 161.5264,-72.6879 161.5264,-162.0359 V 890.42878 h 22.5997 c 36.8504,0 71.5049,-14.39987 97.593,-40.57209 53.7544,-53.95076 53.7773,-141.73838 0.08,-195.72359 z m -62.195,133.41976 c -9.4814,9.51194 -22.0851,14.75555 -35.478,14.75555 h -66.5182 c -24.2581,0 -43.9186,19.72383 -43.9186,44.06018 v 495.51651 c 0,40.7556 -33.0532,73.9155 -73.6893,73.9155 H 982.05724 v -309.89 c 0,-89.3481 -72.45415,-162.04737 -161.5264,-162.04737 H 679.4197 c -89.07227,0 -161.53785,72.69927 -161.53785,162.04737 v 309.89 H 322.55877 c -40.62463,0 -73.68933,-33.1599 -73.68933,-73.9155 V 846.36859 c 0,-24.33635 -19.66041,-44.06018 -43.91853,-44.06018 h -65.37456 c -0.68622,-0.0458 -1.36102,-0.0802 -2.05868,-0.0916 -13.08406,-0.22941 -25.35609,-5.43867 -34.55153,-14.67524 -19.557468,-19.62056 -19.557468,-51.55271 0,-71.18472 0.0114,0 0.0114,-0.0118 0.0228,-0.0235 l 0.0343,-0.0344 611.48546,-613.43446 c 9.46995,-9.511954 22.06221,-14.744101 35.4665,-14.744101 13.39287,0 25.98513,5.232147 35.46649,14.744101 l 611.34811,613.3086 c 0.091,0.0916 0.1945,0.18358 0.2861,0.27523 19.4545,19.65495 19.4202,51.51828 -0.091,71.10441 z m 0,0"
     id="path2"
     style="stroke-width:2.93262" />
</svg>
