<?xml version="1.0" encoding="UTF-8" standalone="no"?>
<svg
   xmlns:dc="http://purl.org/dc/elements/1.1/"
   xmlns:cc="http://creativecommons.org/ns#"
   xmlns:rdf="http://www.w3.org/1999/02/22-rdf-syntax-ns#"
   xmlns:svg="http://www.w3.org/2000/svg"
   xmlns="http://www.w3.org/2000/svg"
   xmlns:sodipodi="http://sodipodi.sourceforge.net/DTD/sodipodi-0.dtd"
   xmlns:inkscape="http://www.inkscape.org/namespaces/inkscape"
   height="1500"
   viewBox="0 0 1500 1500"
   width="1500"
   version="1.1"
   id="svg851"
   sodipodi:docname="logout.svg"
   inkscape:version="1.0.2-2 (e86c870879, 2021-01-15)">
  <metadata
     id="metadata857">
    <rdf:RDF>
      <cc:Work
         rdf:about="">
        <dc:format>image/svg+xml</dc:format>
        <dc:type
           rdf:resource="http://purl.org/dc/dcmitype/StillImage" />
        <dc:title></dc:title>
      </cc:Work>
    </rdf:RDF>
  </metadata>
  <defs
     id="defs855" />
  <sodipodi:namedview
     pagecolor="#ffffff"
     bordercolor="#666666"
     borderopacity="1"
     objecttolerance="10"
     gridtolerance="10"
     guidetolerance="10"
     inkscape:pageopacity="0"
     inkscape:pageshadow="2"
     inkscape:window-width="1714"
     inkscape:window-height="828"
     id="namedview853"
     showgrid="false"
     inkscape:zoom="0.32"
     inkscape:cx="665.04096"
     inkscape:cy="733.38802"
     inkscape:window-x="0"
     inkscape:window-y="0"
     inkscape:window-maximized="0"
     inkscape:current-layer="svg851" />
  <g
     id="Solid"
     transform="matrix(3.1338245,0,0,3.1214879,-51.211788,-50.915709)">
    <path
       d="m 480.971,239.029 -90.51,-90.509 a 24,24 0 0 0 -33.942,0 24,24 0 0 0 0,33.941 L 406.059,232 H 144 a 24,24 0 0 0 -24,24 24,24 0 0 0 24,24 h 262.059 l -49.54,49.539 a 24.000265,24.000265 0 0 0 33.942,33.941 l 90.51,-90.51 a 24,24 0 0 0 0,-33.941 z"
       id="path846" />
    <path
       d="m 304,392 a 24,24 0 0 0 -24,24 v 24 H 72 V 72 h 208 v 24 a 24,24 0 0 0 48,0 V 64 A 40,40 0 0 0 288,24 H 64 A 40,40 0 0 0 24,64 v 384 a 40,40 0 0 0 40,40 h 224 a 40,40 0 0 0 40,-40 v -32 a 24,24 0 0 0 -24,-24 z"
       id="path848" />
  </g>
</svg>
